<svg width="24" height="25" viewBox="0 0 24 25" fill="none" xmlns="http://www.w3.org/2000/svg">
<path d="M11.9907 5.82739C10.3563 5.82739 8.78882 6.47673 7.63311 7.63255C6.4774 8.78838 5.82813 10.356 5.82812 11.9906C5.82813 13.6252 6.4774 15.1928 7.63311 16.3486C8.78882 17.5045 10.3563 18.1538 11.9907 18.1538C13.6251 18.1538 15.1926 17.5045 16.3483 16.3486C17.504 15.1928 18.1533 13.6252 18.1533 11.9906C18.1533 10.356 17.504 8.78838 16.3483 7.63255C15.1926 6.47673 13.6251 5.82739 11.9907 5.82739ZM11.9907 15.9932C10.9289 15.9932 9.91059 15.5714 9.15978 14.8205C8.40897 14.0696 7.98717 13.0512 7.98717 11.9893C7.98717 10.9274 8.40897 9.90893 9.15978 9.15805C9.91059 8.40716 10.9289 7.98532 11.9907 7.98532C13.0525 7.98532 14.0709 8.40716 14.8217 9.15805C15.5725 9.90893 15.9943 10.9274 15.9943 11.9893C15.9943 13.0512 15.5725 14.0696 14.8217 14.8205C14.0709 15.5714 13.0525 15.9932 11.9907 15.9932Z" fill="white"/>
<path d="M18.3971 15.7393C19.1906 15.7393 19.8338 15.0959 19.8338 14.3024C19.8338 13.5088 19.1906 12.8655 18.3971 12.8655C17.6037 12.8655 16.9604 13.5088 16.9604 14.3024C16.9604 15.0959 17.6037 15.7393 18.3971 15.7393Z" fill="white"/>
<path d="M23.3643 4.13992C23.0558 3.3431 22.5843 2.61948 21.98 2.01539C21.3758 1.4113 20.652 0.940041 19.8552 0.631784C18.9227 0.281713 17.9376 0.0924233 16.9418 0.0719753C15.6584 0.0159944 15.2519 0 11.9973 0C8.74278 0 8.32563 -1.34065e-07 7.05287 0.0719753C6.05783 0.0913778 5.07342 0.280706 4.14216 0.631784C3.34509 0.939681 2.62119 1.41081 2.01688 2.01495C1.41258 2.61909 0.94122 3.34289 0.633052 4.13992C0.282947 5.07242 0.0941109 6.05771 0.0746335 7.05359C0.0173256 8.33582 0 8.74235 0 11.9986C0 15.2535 -9.92969e-09 15.668 0.0746335 16.9436C0.0946246 17.9405 0.282541 18.9242 0.633052 19.8586C0.942085 20.6553 1.4139 21.3788 2.01835 21.9829C2.6228 22.5869 3.3466 23.0582 4.14349 23.3667C5.07299 23.7308 6.0578 23.9337 7.05553 23.9665C8.33896 24.0225 8.74545 24.0398 12 24.0398C15.2546 24.0398 15.6717 24.0398 16.9445 23.9665C17.9402 23.9462 18.9252 23.7574 19.8578 23.408C20.6545 23.099 21.378 22.6274 21.9822 22.0231C22.5864 21.4189 23.058 20.6953 23.3669 19.8985C23.7175 18.9655 23.9054 17.9819 23.9254 16.9849C23.9827 15.7026 24 15.2961 24 12.0399C24 8.78367 24 8.37048 23.9254 7.09491C23.9099 6.08495 23.72 5.08526 23.3643 4.13992ZM21.741 16.8449C21.7324 17.6131 21.5922 18.374 21.3265 19.0948C21.1264 19.6131 20.82 20.0838 20.427 20.4766C20.0341 20.8694 19.5632 21.1755 19.0449 21.3754C18.3322 21.6399 17.5793 21.7801 16.8192 21.7899C15.5531 21.8485 15.1959 21.8632 11.9494 21.8632C8.70013 21.8632 8.36828 21.8632 7.07819 21.7899C6.31843 21.7806 5.56596 21.6404 4.85384 21.3754C4.33366 21.1768 3.86095 20.8711 3.46631 20.4783C3.07167 20.0854 2.76389 19.6141 2.56286 19.0948C2.30091 18.3818 2.16079 17.6298 2.14838 16.8702C2.09107 15.604 2.07774 15.2468 2.07774 11.9999C2.07774 8.75168 2.07774 8.41979 2.14838 7.12823C2.15699 6.36053 2.29719 5.59998 2.56286 4.87967C2.96935 3.82803 3.80231 3.00031 4.85384 2.59778C5.56631 2.33406 6.31856 2.19387 7.07819 2.18325C8.34562 2.12594 8.70147 2.10995 11.9494 2.10995C15.1972 2.10995 15.5304 2.10995 16.8192 2.18325C17.5794 2.1924 18.3323 2.33263 19.0449 2.59778C19.5632 2.79808 20.034 3.10454 20.4269 3.49751C20.8198 3.89048 21.1262 4.36127 21.3265 4.87967C21.5885 5.59269 21.7286 6.34471 21.741 7.10424C21.7983 8.37181 21.813 8.72769 21.813 11.9759C21.813 15.2228 21.813 15.572 21.7557 16.8463H21.741V16.8449Z" fill="white"/>
</svg>
